<mxfile host="app.diagrams.net" modified="2023-09-18T09:37:28.284Z" agent="Mozilla/5.0 (Macintosh; Intel Mac OS X 10_15_7) AppleWebKit/537.36 (KHTML, like Gecko) Chrome/117.0.0.0 Safari/537.36 Edg/117.0.2045.31" version="21.7.1" etag="7uwL9r65sx61KG3OLFYg" type="github">
  <diagram name="Page-1" id="stjTFsO357A2wULYCFwq">
    <mxGraphModel>
      <root>
        <mxCell id="0" />
        <mxCell id="1" parent="0" />
      </root>
    </mxGraphModel>
  </diagram>
</mxfile>
